<svg xmlns="http://www.w3.org/2000/svg">
  <symbol id="icon-phone" viewBox="0 0 24 24"><path d="M17.7071 12.293C17.6143 12.2 17.5041 12.1263 17.3828 12.076C17.2615 12.0257 17.1314 11.9998 17.0001 11.9998C16.8688 11.9998 16.7387 12.0257 16.6174 12.076C16.4961 12.1263 16.3859 12.2 16.2931 12.293L14.6991 13.887C13.9601 13.667 12.5811 13.167 11.7071 12.293C10.8331 11.419 10.3331 10.04 10.1131 9.30096L11.7071 7.70696C11.8 7.61417 11.8738 7.50397 11.9241 7.38265C11.9744 7.26134 12.0003 7.13129 12.0003 6.99996C12.0003 6.86862 11.9744 6.73858 11.9241 6.61726C11.8738 6.49595 11.8 6.38575 11.7071 6.29296L7.70709 2.29296C7.6143 2.20001 7.5041 2.12627 7.38278 2.07596C7.26147 2.02565 7.13142 1.99976 7.00009 1.99976C6.86876 1.99976 6.73871 2.02565 6.6174 2.07596C6.49608 2.12627 6.38588 2.20001 6.29309 2.29296L3.58109 5.00496C3.20109 5.38496 2.98709 5.90696 2.99509 6.43996C3.01809 7.86396 3.39509 12.81 7.29309 16.708C11.1911 20.606 16.1371 20.982 17.5621 21.006H17.5901C18.1181 21.006 18.6171 20.798 18.9951 20.42L21.7071 17.708C21.8 17.6152 21.8738 17.505 21.9241 17.3837C21.9744 17.2623 22.0003 17.1323 22.0003 17.001C22.0003 16.8696 21.9744 16.7396 21.9241 16.6183C21.8738 16.4969 21.8 16.3867 21.7071 16.294L17.7071 12.293ZM17.5801 19.005C16.3321 18.984 12.0621 18.649 8.70709 15.293C5.34109 11.927 5.01509 7.64196 4.99509 6.41896L7.00009 4.41396L9.58609 6.99996L8.29309 8.29296C8.17555 8.41041 8.08913 8.55529 8.04164 8.71453C7.99415 8.87376 7.98709 9.04231 8.02109 9.20496C8.04509 9.31996 8.63209 12.047 10.2921 13.707C11.9521 15.367 14.6791 15.954 14.7941 15.978C14.9566 16.0129 15.1254 16.0064 15.2847 15.9591C15.4441 15.9117 15.589 15.825 15.7061 15.707L17.0001 14.414L19.5861 17L17.5801 19.005Z" fill="currentColor"/></symbol>
  <symbol id="icon-map" viewBox="0 0 24 24"><g><path d="M12.0001 14C14.2061 14 16.0001 12.206 16.0001 10C16.0001 7.794 14.2061 6 12.0001 6C9.79406 6 8.00006 7.794 8.00006 10C8.00006 12.206 9.79406 14 12.0001 14ZM12.0001 8C13.1031 8 14.0001 8.897 14.0001 10C14.0001 11.103 13.1031 12 12.0001 12C10.8971 12 10.0001 11.103 10.0001 10C10.0001 8.897 10.8971 8 12.0001 8Z" fill="currentColor"/><path d="M11.4201 21.814C11.5893 21.9349 11.7921 21.9998 12.0001 21.9998C12.2081 21.9998 12.4108 21.9349 12.5801 21.814C12.8841 21.599 20.0291 16.44 20.0001 10C20.0001 5.589 16.4111 2 12.0001 2C7.58909 2 4.00009 5.589 4.00009 9.995C3.97109 16.44 11.1161 21.599 11.4201 21.814ZM12.0001 4C15.3091 4 18.0001 6.691 18.0001 10.005C18.0211 14.443 13.6121 18.428 12.0001 19.735C10.3891 18.427 5.97909 14.441 6.00009 10C6.00009 6.691 8.69109 4 12.0001 4Z" fill="currentColor"/></g></symbol>
  <symbol id="icon-facebook" viewBox="0 0 24 24"><path d="M22 12.3038C22 6.74719 17.5229 2.24268 12 2.24268C6.47715 2.24268 2 6.74719 2 12.3038C2 17.3255 5.65684 21.4879 10.4375 22.2427V15.2121H7.89844V12.3038H10.4375V10.0872C10.4375 7.56564 11.9305 6.1728 14.2146 6.1728C15.3088 6.1728 16.4531 6.36931 16.4531 6.36931V8.84529H15.1922C13.95 8.84529 13.5625 9.6209 13.5625 10.4166V12.3038H16.3359L15.8926 15.2121H13.5625V22.2427C18.3432 21.4879 22 17.3257 22 12.3038Z" fill="currentColor"/></symbol>
  <symbol id="icon-instagram" viewBox="0 0 24 24"><path d="M11.9988 4.62091C14.4032 4.62091 14.6878 4.63159 15.6332 4.67378C16.5123 4.71258 16.9864 4.85994 17.303 4.98311C17.7215 5.14509 18.0235 5.34194 18.3362 5.65465C18.6528 5.97129 18.8458 6.26994 19.0111 6.68838C19.1343 7.00503 19.2816 7.48253 19.3204 8.35822C19.3626 9.3076 19.3733 9.59218 19.3733 11.9932C19.3733 14.3942 19.3626 14.6821 19.3204 15.6281C19.2816 16.5072 19.1343 16.9813 19.0111 17.298C18.8491 17.7164 18.6528 18.0184 18.3396 18.3311C18.0229 18.6478 17.7243 18.8407 17.3064 19.0061C16.9898 19.1292 16.5117 19.2766 15.6366 19.3154C14.6872 19.3576 14.4026 19.3683 12.0016 19.3683C9.60062 19.3683 9.31266 19.3576 8.36666 19.3154C7.48759 19.2766 7.01346 19.1292 6.69682 19.0061C6.27838 18.8441 5.97635 18.6478 5.66308 18.3345C5.34644 18.0179 5.15353 17.7192 4.98817 17.3013C4.865 16.9847 4.71765 16.5066 4.67884 15.6315C4.63666 14.6821 4.62597 14.3975 4.62597 11.9965C4.62597 9.59556 4.63666 9.3076 4.67884 8.3616C4.71765 7.48253 4.865 7.0084 4.98817 6.69176C5.15015 6.27331 5.347 5.97129 5.65971 5.65802C5.97635 5.34137 6.275 5.14846 6.69344 4.98311C7.01009 4.85994 7.48759 4.71258 8.36328 4.67378C9.30872 4.63159 9.59387 4.62091 11.9982 4.62091H11.9988ZM11.9988 3.00056C9.55563 3.00056 9.25023 3.01125 8.29017 3.05343C7.33405 3.09561 6.67657 3.25028 6.1074 3.47187C5.51348 3.70359 5.01067 4.00955 4.5118 4.51236C4.00899 5.01179 3.70303 5.51404 3.47131 6.10459C3.24972 6.6777 3.09505 7.33123 3.05287 8.28736C3.01069 9.25079 3 9.55619 3 11.9994C3 14.4425 3.01069 14.7479 3.05287 15.708C3.09505 16.6641 3.24972 17.3216 3.47131 17.8908C3.70359 18.4847 4.00899 18.9875 4.5118 19.4864C5.01067 19.9852 5.51348 20.2951 6.10402 20.5235C6.67713 20.7451 7.33067 20.8997 8.28679 20.9419C9.24629 20.9841 9.55225 20.9948 11.9954 20.9948C14.4386 20.9948 14.7446 20.9841 15.7041 20.9419C16.6602 20.8997 17.3177 20.7451 17.8868 20.5235C18.4774 20.2951 18.9802 19.9858 19.4791 19.4864C19.9779 18.9869 20.2878 18.4847 20.5162 17.8941C20.7378 17.321 20.8924 16.6675 20.9346 15.7114C20.9768 14.7519 20.9875 14.4459 20.9875 12.0027C20.9875 9.55956 20.9768 9.25417 20.9346 8.29411C20.8924 7.33798 20.7378 6.68051 20.5162 6.11133C20.2946 5.51348 19.9886 5.01123 19.4864 4.5118C18.9875 4.01293 18.4847 3.70303 17.8941 3.47469C17.321 3.25309 16.6675 3.09842 15.7114 3.05624C14.7485 3.01069 14.4425 3 11.9994 3L11.9988 3.00056Z" fill="currentColor"/><path d="M11.9985 7.37695C9.44683 7.37695 7.37598 9.44724 7.37598 11.9995C7.37598 14.5518 9.44626 16.6221 11.9985 16.6221C14.5508 16.6221 16.6211 14.5518 16.6211 11.9995C16.6211 9.4478 14.5508 7.37695 11.9985 7.37695ZM11.9985 14.9978C10.3428 14.9978 9.00026 13.6553 9.00026 11.9995C9.00026 10.3437 10.3428 9.00124 11.9985 9.00124C13.6543 9.00124 14.9968 10.3437 14.9968 11.9995C14.9968 13.6553 13.6543 14.9978 11.9985 14.9978Z" fill="currentColor"/><path d="M17.8822 7.19404C17.8822 7.79021 17.3991 8.27333 16.8029 8.27333C16.2068 8.27333 15.7236 7.79021 15.7236 7.19404C15.7236 6.59787 16.2068 6.11475 16.8029 6.11475C17.3991 6.11475 17.8822 6.59787 17.8822 7.19404Z" fill="currentColor"/></symbol>
  <symbol id="icon-x" viewBox="0 0 24 24"><path d="M17.1761 4.24268H19.9362L13.9061 11.0201L21 20.2427H15.4456L11.0951 14.6493L6.11723 20.2427H3.35544L9.80517 12.9935L3 4.24268H8.69545L12.6279 9.3553L17.1761 4.24268ZM16.2073 18.6181H17.7368L7.86441 5.78196H6.2232L16.2073 18.6181Z" fill="currentColor"/></symbol>
  <symbol id="icon-arrow-left" viewBox="0 0 48 48"><path d="M24.7071 29.293L20.4141 25H30.0001V23H20.4141L24.7071 18.707L23.2931 17.293L16.5861 24L23.2931 30.707L24.7071 29.293Z" fill="currentColor"/></symbol>
  <symbol id="icon-arrow-right" viewBox="0 0 48 48"><path d="M23.293 29.293L24.707 30.707L31.414 24L24.707 17.293L23.293 18.707L27.586 23H18V25H27.586L23.293 29.293Z" fill="currentColor"/></symbol>
  <symbol id="icon-menu" viewBox="0 0 24 24"><path d="M4 6H20V8H4V6ZM4 11H20V13H4V11ZM4 16H20V18H4V16Z" fill="currentColor"/></symbol>
  <symbol id="icon-star" viewBox="0 0 20 19"><path d="M9.07088 0.612343C9.41462 -0.204115 10.5854 -0.204114 10.9291 0.612346L12.9579 5.43123C13.1029 5.77543 13.4306 6.01061 13.8067 6.0404L19.0727 6.45748C19.9649 6.52814 20.3267 7.62813 19.6469 8.2034L15.6348 11.5987C15.3482 11.8412 15.223 12.2218 15.3106 12.5843L16.5363 17.661C16.744 18.5211 15.7969 19.201 15.033 18.7401L10.5245 16.0196C10.2025 15.8252 9.7975 15.8252 9.47548 16.0196L4.96699 18.7401C4.20311 19.201 3.25596 18.5211 3.46363 17.661L4.68942 12.5843C4.77698 12.2218 4.65182 11.8412 4.36526 11.5987L0.353062 8.2034C-0.326718 7.62813 0.0350679 6.52814 0.927291 6.45748L6.19336 6.0404C6.5695 6.01061 6.89716 5.77543 7.04207 5.43123L9.07088 0.612343Z" fill="currentColor"/></symbol>
  <symbol id="icon-close" viewBox="0 0 24 24"><path d="M19 6.41L17.59 5L12 10.59L6.41 5L5 6.41L10.59 12L5 17.59L6.41 19L12 13.41L17.59 19L19 17.59L13.41 12L19 6.41Z" fill="currentColor"/></symbol>
  <symbol id="icon-check" viewBox="0 0 24 24"><path d="M9 16.17L4.83 12L3.41 13.41L9 19L21 7L19.59 5.59L9 16.17Z" fill="currentColor"/></symbol>
</svg>
